<svg width="18" height="18" viewBox="0 0 18 18" fill="none" xmlns="http://www.w3.org/2000/svg">
<g clip-path="url(#clip0_5_404)">
<path d="M18 6.97473C18 8.32792 18 9.67209 18 11.0285C14.2511 11.0285 10.5124 11.0285 6.75842 11.0285C6.75842 9.67854 6.75842 8.33372 6.75842 6.97473C10.5016 6.97473 14.2454 6.97473 18 6.97473Z" fill="#FFBC0F"/>
<path d="M0.00134277 4.04897C0.00134277 2.70287 0.00134277 1.36321 0.00134277 0.00744629C3.74707 0.00744629 7.49089 0.00744629 11.2455 0.00744629C11.2455 1.35355 11.2455 2.69321 11.2455 4.04897C7.49981 4.04897 3.75535 4.04897 0.00134277 4.04897Z" fill="#FFBC0F"/>
<path d="M11.2456 13.9488C11.2456 15.3091 11.2456 16.6487 11.2456 18C7.4948 18 3.75481 18 0.0020752 18C0.0020752 16.6494 0.0020752 15.3046 0.0020752 13.9488C3.75035 13.9488 7.49035 13.9488 11.2456 13.9488Z" fill="#FFBC0F"/>
<path d="M3.95846 11.028C2.63239 11.028 1.32097 11.028 0 11.028C0 9.6722 0 8.32803 0 6.97162C1.32161 6.97162 2.63239 6.97162 3.95846 6.97162C3.95846 8.32159 3.95846 9.6664 3.95846 11.028Z" fill="#FFBC0F"/>
<path d="M17.9946 4.05248C16.673 4.05248 15.3622 4.05248 14.0381 4.05248C14.0381 2.69929 14.0381 1.35577 14.0381 0C15.3565 0 16.6679 0 17.9946 0C17.9946 1.34352 17.9946 2.68769 17.9946 4.05248Z" fill="#FFBC0F"/>
<path d="M17.9987 18C16.6797 18 15.3689 18 14.0409 18C14.0409 16.6565 14.0409 15.3117 14.0409 13.9527C15.3542 13.9527 16.6701 13.9527 17.9987 13.9527C17.9987 15.3001 17.9987 16.6443 17.9987 18Z" fill="#FFBC0F"/>
</g>
<defs>
<clipPath id="clip0_5_404">
<rect width="18" height="18" fill="white"/>
</clipPath>
</defs>
</svg>
