<svg width="46" height="24" viewBox="0 0 46 24" fill="none" xmlns="http://www.w3.org/2000/svg">
<g clip-path="url(#clip0_5_102)">
<path d="M22.91 13.4035H1.49003C1.17292 13.4332 0.855196 13.3539 0.585905 13.178C0.316614 13.002 0.110728 12.7391 2.98768e-05 12.4299C-0.10897 12.1533 -0.12892 11.8477 -0.0568564 11.5584C0.0152071 11.2692 0.175439 11.0117 0.40003 10.8243C0.69374 10.6052 1.03936 10.4728 1.40003 10.4411C6.02003 10.4411 10.64 10.4411 15.26 10.4411H44.46C44.6585 10.4239 44.8583 10.4496 45.0468 10.5165C45.2352 10.5834 45.4082 10.6901 45.5548 10.8298C45.7015 10.9695 45.8185 11.1391 45.8985 11.3281C45.9786 11.5171 46.0199 11.7212 46.0199 11.9275C46.0199 12.1338 45.9786 12.3379 45.8985 12.5269C45.8185 12.7158 45.7015 12.8855 45.5548 13.0252C45.4082 13.1649 45.2352 13.2716 45.0468 13.3385C44.8583 13.4054 44.6585 13.4311 44.46 13.4139H22.91V13.4035Z" fill="#FFBC0F"/>
<path d="M22.91 2.96246H1.49003C1.23899 2.99292 0.984645 2.9544 0.752537 2.85077C0.52043 2.74715 0.318742 2.58207 0.167742 2.37212C0.0167423 2.16218 -0.0782506 1.91477 -0.10769 1.65474C-0.13713 1.39472 -0.0999797 1.13126 2.76566e-05 0.890819C0.115313 0.605836 0.314887 0.366069 0.570045 0.206001C0.825203 0.0459329 1.1228 -0.0261876 1.42003 1.17952e-05H44.48C44.6754 -0.00977321 44.8707 0.0214929 45.0541 0.0919282C45.2375 0.162363 45.4053 0.270511 45.5473 0.409863C45.6893 0.549214 45.8026 0.716887 45.8804 0.902789C45.9582 1.08869 45.9989 1.28898 46 1.4916C46.0006 1.69473 45.9606 1.89578 45.8824 2.08209C45.8043 2.2684 45.6898 2.43593 45.546 2.57411C45.4023 2.71229 45.2325 2.81814 45.0473 2.88498C44.8621 2.95182 44.6655 2.9782 44.47 2.96246H22.91Z" fill="#FFBC0F"/>
<path d="M30.17 20.8718H44.43C44.6892 20.8472 44.95 20.8962 45.1842 21.0138C45.4184 21.1313 45.6173 21.3128 45.7593 21.5388C45.9013 21.7647 45.981 22.0265 45.99 22.2959C45.9989 22.5654 45.9367 22.8322 45.81 23.0678C45.676 23.3236 45.4736 23.534 45.2271 23.6736C44.9805 23.8133 44.7003 23.8762 44.42 23.855C42.1 23.855 39.77 23.855 37.42 23.855H16C15.7607 23.8639 15.5214 23.836 15.29 23.7721C14.9685 23.6642 14.6944 23.4418 14.5161 23.1445C14.3378 22.8471 14.267 22.494 14.3161 22.1477C14.3652 21.8014 14.5312 21.4843 14.7845 21.2526C15.0378 21.021 15.3622 20.8897 15.7 20.8822H30.17V20.8718Z" fill="#FFBC0F"/>
</g>
<defs>
<clipPath id="clip0_5_102">
<rect width="46" height="24" fill="white"/>
</clipPath>
</defs>
</svg>
