<svg width="18" height="18" viewBox="0 0 18 18" fill="none" xmlns="http://www.w3.org/2000/svg">
<g clip-path="url(#clip0_2_173)">
<path d="M18.0001 6.97473C18.0001 8.32792 18.0001 9.67209 18.0001 11.0285C14.2512 11.0285 10.5125 11.0285 6.75848 11.0285C6.75848 9.67854 6.75848 8.33372 6.75848 6.97473C10.5017 6.97473 14.2455 6.97473 18.0001 6.97473Z" fill="black"/>
<path d="M0.00140381 4.04897C0.00140381 2.70287 0.00140381 1.36321 0.00140381 0.00744629C3.74713 0.00744629 7.49095 0.00744629 11.2456 0.00744629C11.2456 1.35355 11.2456 2.69321 11.2456 4.04897C7.49987 4.04897 3.75541 4.04897 0.00140381 4.04897Z" fill="black"/>
<path d="M11.2456 13.9488C11.2456 15.3091 11.2456 16.6487 11.2456 18C7.4948 18 3.75481 18 0.0020752 18C0.0020752 16.6494 0.0020752 15.3046 0.0020752 13.9488C3.75035 13.9488 7.49035 13.9488 11.2456 13.9488Z" fill="black"/>
<path d="M3.95846 11.028C2.63239 11.028 1.32097 11.028 0 11.028C0 9.6722 0 8.32803 0 6.97162C1.32161 6.97162 2.63239 6.97162 3.95846 6.97162C3.95846 8.32159 3.95846 9.6664 3.95846 11.028Z" fill="black"/>
<path d="M17.9947 4.05248C16.6731 4.05248 15.3623 4.05248 14.0381 4.05248C14.0381 2.69929 14.0381 1.35577 14.0381 0C15.3566 0 16.668 0 17.9947 0C17.9947 1.34352 17.9947 2.68769 17.9947 4.05248Z" fill="black"/>
<path d="M17.9987 18C16.6796 18 15.3688 18 14.0408 18C14.0408 16.6565 14.0408 15.3117 14.0408 13.9527C15.3542 13.9527 16.6701 13.9527 17.9987 13.9527C17.9987 15.3001 17.9987 16.6443 17.9987 18Z" fill="black"/>
</g>
<defs>
<clipPath id="clip0_2_173">
<rect width="18" height="18" fill="white"/>
</clipPath>
</defs>
</svg>
