<svg width="15" height="9" viewBox="0 0 15 9" fill="none" xmlns="http://www.w3.org/2000/svg">
<path d="M8.06428 4.60938H2.70526C2.62593 4.62086 2.54644 4.5902 2.47906 4.52214C2.41169 4.45407 2.36018 4.35239 2.33248 4.23278C2.30521 4.12581 2.30022 4.0076 2.31825 3.89573C2.33628 3.78385 2.37637 3.68427 2.43256 3.61179C2.50604 3.52703 2.59251 3.4758 2.68275 3.46355C3.83861 3.46355 4.99448 3.46355 6.15034 3.46355H13.4558C13.5055 3.45691 13.5555 3.46684 13.6026 3.49271C13.6498 3.51859 13.693 3.55985 13.7297 3.61388C13.7664 3.66792 13.7957 3.73355 13.8157 3.80663C13.8357 3.87972 13.8461 3.95866 13.8461 4.03847C13.8461 4.11828 13.8357 4.19723 13.8157 4.27031C13.7957 4.34339 13.7664 4.40903 13.7297 4.46306C13.693 4.5171 13.6498 4.55835 13.6026 4.58423C13.5555 4.61011 13.5055 4.62004 13.4558 4.61339H8.06428V4.60938Z" fill="black"/>
<path d="M7.48984 1.14992H0.522856C0.441206 1.16172 0.358477 1.1468 0.282982 1.10665C0.207488 1.06649 0.141888 1.00253 0.0927744 0.921179C0.0436607 0.83983 0.0127637 0.743962 0.00318825 0.64321C-0.00638722 0.542458 0.00569619 0.44037 0.0382242 0.347206C0.0757216 0.236782 0.140634 0.143877 0.223626 0.0818546C0.306617 0.0198319 0.403412 -0.00811322 0.500088 0.00203845H14.5056C14.5692 -0.00175302 14.6327 0.0103619 14.6923 0.037654C14.752 0.0649461 14.8066 0.106851 14.8527 0.160846C14.8989 0.214842 14.9358 0.279811 14.9611 0.351844C14.9864 0.423877 14.9996 0.501484 15 0.579994C15.0002 0.658702 14.9872 0.736606 14.9618 0.808797C14.9363 0.880988 14.8991 0.9459 14.8523 0.999443C14.8056 1.05299 14.7503 1.094 14.6901 1.1199C14.6299 1.1458 14.5659 1.15602 14.5024 1.14992H7.48984Z" fill="black"/>
<path d="M8.08205 6.92549H11.1973C11.254 6.91598 11.3109 6.9349 11.3621 6.98021C11.4133 7.02551 11.4567 7.09548 11.4877 7.18257C11.5187 7.26966 11.5362 7.37058 11.5381 7.47444C11.5401 7.5783 11.5265 7.68116 11.4988 7.77194C11.4695 7.87056 11.4253 7.95166 11.3715 8.00548C11.3176 8.05931 11.2564 8.08358 11.1951 8.07538C10.6883 8.07538 10.1793 8.07538 9.66591 8.07538H4.98643C4.93414 8.07882 4.88187 8.06806 4.83132 8.04344C4.76109 8.00184 4.70119 7.91614 4.66225 7.80152C4.6233 7.6869 4.60782 7.55078 4.61855 7.41729C4.62929 7.2838 4.66554 7.16158 4.72088 7.07228C4.77622 6.98299 4.84708 6.9324 4.92089 6.92948H8.08205V6.92549Z" fill="black"/>
</svg>
