<svg width="18" height="18" viewBox="0 0 18 18" fill="none" xmlns="http://www.w3.org/2000/svg">
<path d="M13.2632 18C11.9526 18 10.8354 17.5498 9.91137 16.6495C8.98737 15.7492 8.52569 14.6609 8.52632 13.3846C8.52632 12.1077 8.98832 11.0191 9.91232 10.1188C10.8363 9.21846 11.9533 8.76862 13.2632 8.76923C14.5737 8.76923 15.6909 9.21939 16.6149 10.1197C17.5389 11.02 18.0006 12.1083 18 13.3846C18 14.6615 17.538 15.7502 16.614 16.6505C15.69 17.5508 14.5731 18.0006 13.2632 18ZM12.7895 13.8462V15.6923C12.7895 15.8154 12.8368 15.9231 12.9316 16.0154C13.0263 16.1077 13.1368 16.1538 13.2632 16.1538C13.3895 16.1538 13.5 16.1077 13.5947 16.0154C13.6895 15.9231 13.7368 15.8154 13.7368 15.6923V13.8462H15.6316C15.7579 13.8462 15.8684 13.8 15.9632 13.7077C16.0579 13.6154 16.1053 13.5077 16.1053 13.3846C16.1053 13.2615 16.0579 13.1538 15.9632 13.0615C15.8684 12.9692 15.7579 12.9231 15.6316 12.9231H13.7368V11.0769C13.7368 10.9538 13.6895 10.8462 13.5947 10.7538C13.5 10.6615 13.3895 10.6154 13.2632 10.6154C13.1368 10.6154 13.0263 10.6615 12.9316 10.7538C12.8368 10.8462 12.7895 10.9538 12.7895 11.0769V12.9231H10.8947C10.7684 12.9231 10.6579 12.9692 10.5632 13.0615C10.4684 13.1538 10.4211 13.2615 10.4211 13.3846C10.4211 13.5077 10.4684 13.6154 10.5632 13.7077C10.6579 13.8 10.7684 13.8462 10.8947 13.8462H12.7895ZM7.27105 16.1538H1.89474C1.37369 16.1538 0.927475 15.9729 0.556107 15.6111C0.184738 15.2492 -0.00062997 14.8148 1.60844e-06 14.3077V6C1.60844e-06 5.70769 0.0672646 5.43077 0.201791 5.16923C0.336317 4.90769 0.521686 4.69231 0.757896 4.52308L6.44211 0.369231C6.77369 0.123077 7.15263 0 7.57895 0C8.00526 0 8.38421 0.123077 8.71579 0.369231L14.4 4.52308C14.6368 4.69231 14.8225 4.90769 14.9571 5.16923C15.0916 5.43077 15.1585 5.70769 15.1579 6V7.2C14.8579 7.10769 14.55 7.03846 14.2342 6.99231C13.9184 6.94615 13.5947 6.92308 13.2632 6.92308C11.4158 6.92308 9.84853 7.55015 8.56137 8.80431C7.27421 10.0585 6.63095 11.5852 6.63158 13.3846C6.63158 13.8615 6.68305 14.3348 6.786 14.8043C6.88895 15.2738 7.05063 15.7237 7.27105 16.1538Z" fill="#FFBC0F"/>
</svg>
