<svg width="18" height="18" viewBox="0 0 18 18" fill="none" xmlns="http://www.w3.org/2000/svg">
<path d="M6.29 14.9174C6.035 14.4499 5.81173 13.9646 5.6202 13.4614C5.42867 12.9582 5.26943 12.4377 5.1425 11.9H2.635C3.04583 12.6083 3.55952 13.2245 4.17605 13.7487C4.79258 14.2729 5.49723 14.6624 6.29 14.9174ZM1.9125 10.2H4.8025C4.76 9.91663 4.72798 9.6367 4.70645 9.36017C4.68492 9.08363 4.67443 8.7969 4.675 8.49997C4.675 8.20247 4.68577 7.91574 4.7073 7.63977C4.72883 7.36381 4.76057 7.08387 4.8025 6.79998H1.9125C1.84167 7.08331 1.7884 7.36324 1.7527 7.63977C1.717 7.91631 1.69943 8.20304 1.7 8.49997C1.7 8.79747 1.71785 9.0842 1.75355 9.36017C1.78925 9.63613 1.84223 9.91607 1.9125 10.2ZM2.635 5.09998H5.1425C5.27 4.56165 5.42952 4.04089 5.62105 3.53769C5.81258 3.03449 6.03557 2.54942 6.29 2.08249C5.49667 2.33749 4.79173 2.72707 4.1752 3.25124C3.55867 3.7754 3.04527 4.39165 2.635 5.09998ZM6.885 5.09998H10.115C9.945 4.47665 9.72542 3.88874 9.45625 3.33624C9.18708 2.78374 8.86833 2.25249 8.5 1.74249C8.13167 2.25249 7.81292 2.78374 7.54375 3.33624C7.27458 3.88874 7.055 4.47665 6.885 5.09998ZM11.8575 5.09998H14.365C13.9542 4.39165 13.4405 3.7754 12.8239 3.25124C12.2074 2.72707 11.5028 2.33749 10.71 2.08249C10.965 2.54999 11.1883 3.03534 11.3798 3.53854C11.5713 4.04174 11.7306 4.56222 11.8575 5.09998ZM8.5 16.9999C7.33833 16.9999 6.24042 16.7767 5.20625 16.3301C4.17208 15.8836 3.26882 15.2744 2.49645 14.5026C1.72465 13.7309 1.11548 12.8279 0.668951 11.7937C0.222418 10.7595 -0.000565589 9.66163 1.07731e-06 8.49997C1.07731e-06 7.32414 0.223268 6.22255 0.669801 5.19518C1.11633 4.16782 1.7255 3.26852 2.4973 2.49729C3.2691 1.72493 4.1718 1.11576 5.2054 0.669798C6.239 0.223833 7.3372 0.000566665 8.5 0C9.67583 0 10.7774 0.223266 11.8048 0.669798C12.8322 1.11633 13.7315 1.72549 14.5027 2.49729C15.2751 3.26909 15.8842 4.16867 16.3302 5.19603C16.7762 6.22339 16.9994 7.32471 17 8.49997C17 8.64164 16.9963 8.7833 16.9889 8.92497C16.9816 9.06663 16.9711 9.2083 16.9575 9.34997H15.2362C15.2646 9.2083 15.2824 9.07003 15.2898 8.93517C15.2972 8.8003 15.3006 8.65524 15.3 8.49997C15.3 8.20247 15.2822 7.91574 15.2465 7.63977C15.2108 7.36381 15.1578 7.08387 15.0875 6.79998H12.1975C12.24 7.08331 12.272 7.36324 12.2935 7.63977C12.3151 7.91631 12.3256 8.20304 12.325 8.49997V8.93602C12.325 9.07032 12.3179 9.2083 12.3038 9.34997H10.6038C10.6179 9.2083 10.625 9.07003 10.625 8.93517V8.49997C10.625 8.20247 10.6142 7.91574 10.5927 7.63977C10.5712 7.36381 10.5394 7.08387 10.4975 6.79998H6.5025C6.46 7.08331 6.42798 7.36324 6.40645 7.63977C6.38492 7.91631 6.37443 8.20304 6.375 8.49997C6.375 8.79747 6.38577 9.0842 6.4073 9.36017C6.42883 9.63613 6.46057 9.91607 6.5025 10.2H9.35V11.9H6.885C7.055 12.5233 7.27458 13.1112 7.54375 13.6637C7.81292 14.2162 8.13167 14.7474 8.5 15.2574C8.65583 15.0308 8.80458 14.8004 8.94625 14.5664C9.08792 14.3324 9.2225 14.0952 9.35 13.8549V16.9574C9.20833 16.9716 9.07035 16.9824 8.93605 16.9897C8.80175 16.9971 8.6564 17.0005 8.5 16.9999ZM12.75 13.9612V15.0024C12.75 15.2433 12.6684 15.4453 12.5052 15.6085C12.342 15.7717 12.1403 15.853 11.9 15.8524C11.6592 15.8524 11.4571 15.7711 11.2939 15.6085C11.1307 15.4459 11.0494 15.2438 11.05 15.0024V11.9C11.05 11.6591 11.1316 11.4571 11.2948 11.2939C11.458 11.1307 11.6597 11.0494 11.9 11.05H15.0025C15.2433 11.05 15.4454 11.1316 15.6086 11.2948C15.7718 11.458 15.8531 11.6597 15.8525 11.9C15.8525 12.1408 15.7712 12.3428 15.6086 12.506C15.4459 12.6692 15.2439 12.7505 15.0025 12.75H13.94L15.8525 14.6624C16.0083 14.8183 16.0862 15.0132 16.0862 15.2472C16.0862 15.4813 16.0083 15.683 15.8525 15.8524C15.6825 16.0224 15.4808 16.1074 15.2473 16.1074C15.0138 16.1074 14.8118 16.0224 14.6413 15.8524L12.75 13.9612Z" fill="#FFBC0F"/>
</svg>
