<svg width="18" height="18" viewBox="0 0 18 18" fill="none" xmlns="http://www.w3.org/2000/svg">
<path d="M2.75 1H15.25C16.216 1 17 1.784 17 2.75V15.25C17 15.7141 16.8156 16.1592 16.4874 16.4874C16.1592 16.8156 15.7141 17 15.25 17H2.75C2.28587 17 1.84075 16.8156 1.51256 16.4874C1.18437 16.1592 1 15.7141 1 15.25V2.75C1 1.784 1.784 1 2.75 1ZM2.5 2.75V15.25C2.5 15.388 2.612 15.5 2.75 15.5H15.25C15.3163 15.5 15.3799 15.4737 15.4268 15.4268C15.4737 15.3799 15.5 15.3163 15.5 15.25V2.75C15.5 2.6837 15.4737 2.62011 15.4268 2.57322C15.3799 2.52634 15.3163 2.5 15.25 2.5H2.75C2.6837 2.5 2.62011 2.52634 2.57322 2.57322C2.52634 2.62011 2.5 2.6837 2.5 2.75ZM12.75 4C12.9489 4 13.1397 4.07902 13.2803 4.21967C13.421 4.36032 13.5 4.55109 13.5 4.75V12.25C13.5 12.4489 13.421 12.6397 13.2803 12.7803C13.1397 12.921 12.9489 13 12.75 13C12.5511 13 12.3603 12.921 12.2197 12.7803C12.079 12.6397 12 12.4489 12 12.25V4.75C12 4.55109 12.079 4.36032 12.2197 4.21967C12.3603 4.07902 12.5511 4 12.75 4ZM4.5 4.75C4.5 4.55109 4.57902 4.36032 4.71967 4.21967C4.86032 4.07902 5.05109 4 5.25 4C5.44891 4 5.63968 4.07902 5.78033 4.21967C5.92098 4.36032 6 4.55109 6 4.75V10.25C6 10.4489 5.92098 10.6397 5.78033 10.7803C5.63968 10.921 5.44891 11 5.25 11C5.05109 11 4.86032 10.921 4.71967 10.7803C4.57902 10.6397 4.5 10.4489 4.5 10.25V4.75ZM9 4C9.19891 4 9.38968 4.07902 9.53033 4.21967C9.67098 4.36032 9.75 4.55109 9.75 4.75V8.25C9.75 8.44891 9.67098 8.63968 9.53033 8.78033C9.38968 8.92098 9.19891 9 9 9C8.80109 9 8.61032 8.92098 8.46967 8.78033C8.32902 8.63968 8.25 8.44891 8.25 8.25V4.75C8.25 4.55109 8.32902 4.36032 8.46967 4.21967C8.61032 4.07902 8.80109 4 9 4Z" fill="#FFBC0F"/>
</svg>
