<svg width="18" height="18" viewBox="0 0 18 18" fill="none" xmlns="http://www.w3.org/2000/svg">
<path d="M7.23529 14.0909C6.84706 14.0909 6.51459 13.9484 6.23788 13.6633C5.96118 13.3782 5.82306 13.0359 5.82353 12.6364V2.45455C5.82353 2.05455 5.96188 1.712 6.23859 1.42691C6.51529 1.14182 6.84753 0.999516 7.23529 1H13.5882C13.9765 1 14.3089 1.14255 14.5856 1.42764C14.8624 1.71273 15.0005 2.05503 15 2.45455V12.6364C15 13.0364 14.8616 13.3789 14.5849 13.664C14.3082 13.9491 13.976 14.0914 13.5882 14.0909H7.23529ZM10.4118 5.72727C10.7059 5.72727 10.956 5.62109 11.1621 5.40873C11.3682 5.19636 11.4711 4.93891 11.4706 4.63636C11.4706 4.33333 11.3675 4.07564 11.1614 3.86327C10.9553 3.65091 10.7054 3.54497 10.4118 3.54546C10.1176 3.54546 9.86753 3.65164 9.66141 3.864C9.45529 4.07636 9.35247 4.33382 9.35294 4.63636C9.35294 4.9394 9.456 5.19709 9.66212 5.40946C9.86824 5.62182 10.1181 5.72776 10.4118 5.72727ZM10.4118 11.9091C11.0941 11.9091 11.6765 11.6606 12.1588 11.1636C12.6412 10.6667 12.8824 10.0667 12.8824 9.36364C12.8824 8.66061 12.6412 8.06061 12.1588 7.56364C11.6765 7.06667 11.0941 6.81818 10.4118 6.81818C9.72941 6.81818 9.14706 7.06667 8.66471 7.56364C8.18235 8.06061 7.94118 8.66061 7.94118 9.36364C7.94118 10.0667 8.18235 10.6667 8.66471 11.1636C9.14706 11.6606 9.72941 11.9091 10.4118 11.9091ZM10.4118 10.4545C10.1176 10.4545 9.86753 10.3484 9.66141 10.136C9.45529 9.92364 9.35247 9.66618 9.35294 9.36364C9.35294 9.06061 9.456 8.80291 9.66212 8.59055C9.86824 8.37818 10.1181 8.27224 10.4118 8.27273C10.7059 8.27273 10.956 8.37891 11.1621 8.59127C11.3682 8.80364 11.4711 9.06109 11.4706 9.36364C11.4706 9.66667 11.3675 9.92436 11.1614 10.1367C10.9553 10.3491 10.7054 10.455 10.4118 10.4545ZM11.4706 17H4.41177C4.02353 17 3.69106 16.8575 3.41435 16.5724C3.13765 16.2873 2.99953 15.945 3 15.5455V3.90909H4.41177V15.5455H11.4706V17Z" fill="#FFBC0F"/>
</svg>
