<svg width="18" height="18" viewBox="0 0 18 18" fill="none" xmlns="http://www.w3.org/2000/svg">
<path d="M0 10.5014C0.037238 10.3384 0.0698212 10.1755 0.111714 10.0359C0.223099 9.58425 0.428179 9.16107 0.713653 8.7938C0.999127 8.42654 1.35862 8.12338 1.7688 7.90401C2.24128 7.6252 2.77954 7.47738 3.32814 7.47577H5.69741H5.87895C5.90926 8.31305 6.25513 9.10788 6.84713 9.70074C4.69664 10.5339 3.84482 12.1398 4.00774 14.3555C3.97996 14.3596 3.95173 14.3596 3.92395 14.3555C2.69615 14.2755 1.48213 14.0505 0.307213 13.6852L0 13.6061V10.5014Z" fill="#FFBC0F"/>
<path d="M17.9907 13.5735C16.8206 14.1069 15.5527 14.3922 14.2669 14.4113C14.2669 14.3368 14.2669 14.2763 14.2669 14.2158C14.2895 13.7189 14.2583 13.2211 14.1738 12.7309C13.9919 11.8817 13.5375 11.1151 12.8798 10.5479C12.4509 10.1803 11.9522 9.9032 11.4135 9.73329L11.7068 9.38884C12.1081 8.88357 12.3467 8.26843 12.391 7.62469C12.391 7.52694 12.391 7.46643 12.5353 7.46643C13.2987 7.46643 14.0667 7.46643 14.8348 7.4897C15.2619 7.50607 15.6814 7.60803 16.0684 7.78953C16.4554 7.97104 16.802 8.22839 17.0876 8.54633C17.5618 9.04702 17.8678 9.68332 17.9627 10.3663C17.9708 10.4124 17.9833 10.4576 18 10.5013L17.9907 13.5735Z" fill="#FFBC0F"/>
<path d="M9.13267 10.2081C9.59815 10.2081 10.0636 10.2081 10.4965 10.2081C11.2523 10.2568 11.9665 10.5718 12.512 11.0972C13.0415 11.5571 13.4115 12.1732 13.5686 12.8567C13.619 13.1096 13.644 13.3669 13.6431 13.6247C13.6431 14.4672 13.6431 15.3144 13.6431 16.1569C13.6494 16.2034 13.6388 16.2506 13.6131 16.2899C13.5875 16.3293 13.5486 16.358 13.5035 16.371C12.6033 16.765 11.6436 17.0057 10.6641 17.0832C9.05638 17.2301 7.43537 17.0946 5.87435 16.6829C5.49266 16.5898 5.12028 16.4688 4.74324 16.371C4.6548 16.371 4.63153 16.3058 4.63153 16.2174C4.63153 15.319 4.63153 14.4207 4.63153 13.5177C4.63697 13.0715 4.73071 12.6308 4.90736 12.221C5.084 11.8113 5.34005 11.4405 5.66072 11.1303C5.98139 10.82 6.36034 10.5763 6.77569 10.4132C7.19104 10.2501 7.63458 10.1709 8.0807 10.1802H9.12802L9.13267 10.2081Z" fill="#FFBC0F"/>
<path d="M9.13266 4.73878C9.65353 4.7397 10.1624 4.895 10.5951 5.18505C11.0277 5.4751 11.3647 5.88689 11.5634 6.36838C11.7621 6.84987 11.8136 7.37945 11.7114 7.8902C11.6092 8.40095 11.3579 8.86996 10.9893 9.23794C10.6207 9.60593 10.1512 9.85639 9.64027 9.95767C9.12934 10.0589 8.59985 10.0065 8.11872 9.80696C7.63758 9.60742 7.22639 9.26974 6.9371 8.83658C6.64781 8.40343 6.49341 7.89424 6.49341 7.37337C6.49093 7.0263 6.55753 6.68221 6.68935 6.36115C6.82116 6.04008 7.01555 5.74845 7.26118 5.50325C7.50681 5.25804 7.79879 5.06417 8.12009 4.93293C8.44139 4.80168 8.7856 4.73569 9.13266 4.73878Z" fill="#FFBC0F"/>
<path d="M4.6268 7.27562C4.04423 7.30726 3.46773 7.14395 2.98831 6.81147C2.5089 6.47899 2.1539 5.99629 1.97936 5.43958C1.80482 4.88288 1.8207 4.2839 2.02448 3.73723C2.22826 3.19055 2.60834 2.72733 3.10469 2.42072C3.49675 2.15961 3.95439 2.01415 4.42525 2.00098C4.89611 1.98781 5.36117 2.10746 5.76721 2.34624C6.19041 2.56665 6.54287 2.90195 6.78412 3.31363C7.02536 3.72531 7.14561 4.19668 7.13105 4.67361C7.1272 4.74301 7.09921 4.80887 7.05192 4.8598C6.46984 5.34305 6.07203 6.01209 5.92547 6.75429C5.91958 6.79573 5.90325 6.83499 5.87801 6.86837C5.85276 6.90176 5.81944 6.92817 5.78117 6.94513C5.42962 7.14904 5.03299 7.26259 4.6268 7.27562Z" fill="#FFBC0F"/>
<path d="M13.4989 2.01578C13.8866 2.01647 14.2694 2.10274 14.62 2.26844C14.9706 2.43413 15.2802 2.67516 15.5269 2.97434C15.7736 3.27351 15.9512 3.62344 16.047 3.99916C16.1429 4.37488 16.1546 4.76713 16.0814 5.1479C16.0081 5.52868 15.8518 5.88859 15.6234 6.20197C15.395 6.51534 15.1003 6.77444 14.7603 6.96079C14.4202 7.14713 14.0433 7.25611 13.6562 7.27996C13.2692 7.30382 12.8817 7.24194 12.5214 7.09877C12.4732 7.08218 12.4311 7.05162 12.4005 7.011C12.3698 6.97037 12.3519 6.92152 12.3491 6.87069C12.2362 6.09599 11.8418 5.39005 11.2413 4.88776C11.1529 4.81329 11.0458 4.75277 10.9574 4.66899C10.9123 4.62784 10.8841 4.57145 10.8782 4.51073C10.8947 4.09721 11.0108 3.69378 11.2166 3.33477C11.4225 2.97575 11.712 2.67176 12.0605 2.44868C12.4852 2.16223 12.9867 2.01129 13.4989 2.01578Z" fill="#FFBC0F"/>
</svg>
