<svg width="18" height="18" viewBox="0 0 18 18" fill="none" xmlns="http://www.w3.org/2000/svg">
<path d="M0 10.5014C0.037238 10.3384 0.0698212 10.1755 0.111714 10.0359C0.223099 9.58425 0.428179 9.16107 0.713653 8.7938C0.999127 8.42654 1.35862 8.12338 1.7688 7.90401C2.24128 7.6252 2.77954 7.47738 3.32814 7.47577H5.69741H5.87895C5.90926 8.31305 6.25513 9.10788 6.84713 9.70074C4.69664 10.5339 3.84482 12.1398 4.00774 14.3555C3.97996 14.3596 3.95173 14.3596 3.92395 14.3555C2.69615 14.2755 1.48213 14.0505 0.307213 13.6852L0 13.6061V10.5014Z" fill="black"/>
<path d="M17.9907 13.5735C16.8207 14.1069 15.5527 14.3922 14.2669 14.4113C14.2669 14.3368 14.2669 14.2763 14.2669 14.2158C14.2896 13.7189 14.2584 13.2211 14.1738 12.7309C13.992 11.8817 13.5376 11.1151 12.8798 10.5479C12.451 10.1803 11.9522 9.9032 11.4136 9.73329L11.7068 9.38884C12.1082 8.88357 12.3467 8.26843 12.3911 7.62469C12.3911 7.52694 12.3911 7.46643 12.5354 7.46643C13.2987 7.46643 14.0668 7.46643 14.8348 7.4897C15.2619 7.50607 15.6814 7.60803 16.0684 7.78953C16.4554 7.97104 16.802 8.22839 17.0877 8.54633C17.5619 9.04702 17.8678 9.68332 17.9628 10.3663C17.9709 10.4124 17.9833 10.4576 18 10.5013L17.9907 13.5735Z" fill="black"/>
<path d="M9.13249 10.2081C9.59796 10.2081 10.0634 10.2081 10.4963 10.2081C11.2522 10.2568 11.9663 10.5718 12.5118 11.0972C13.0413 11.5571 13.4113 12.1732 13.5685 12.8567C13.6188 13.1096 13.6438 13.3669 13.6429 13.6247C13.6429 14.4672 13.6429 15.3144 13.6429 16.1569C13.6492 16.2034 13.6386 16.2506 13.613 16.2899C13.5873 16.3293 13.5484 16.358 13.5033 16.371C12.6031 16.765 11.6434 17.0057 10.6639 17.0832C9.05619 17.2301 7.43519 17.0946 5.87417 16.6829C5.49248 16.5898 5.1201 16.4688 4.74306 16.371C4.65462 16.371 4.63135 16.3058 4.63135 16.2174C4.63135 15.319 4.63135 14.4207 4.63135 13.5177C4.63678 13.0715 4.73053 12.6308 4.90717 12.221C5.08382 11.8113 5.33987 11.4405 5.66054 11.1303C5.98121 10.82 6.36016 10.5763 6.77551 10.4132C7.19086 10.2501 7.6344 10.1709 8.08051 10.1802H9.12783L9.13249 10.2081Z" fill="black"/>
<path d="M9.13247 4.73878C9.65335 4.7397 10.1623 4.895 10.5949 5.18505C11.0275 5.4751 11.3645 5.88689 11.5632 6.36838C11.7619 6.84987 11.8134 7.37945 11.7112 7.8902C11.609 8.40095 11.3577 8.86996 10.9891 9.23794C10.6205 9.60593 10.151 9.85639 9.64009 9.95767C9.12916 10.0589 8.59967 10.0065 8.11853 9.80696C7.6374 9.60742 7.2262 9.26974 6.93692 8.83658C6.64763 8.40343 6.49323 7.89424 6.49323 7.37337C6.49075 7.0263 6.55735 6.68221 6.68916 6.36115C6.82098 6.04008 7.01536 5.74845 7.261 5.50325C7.50663 5.25804 7.7986 5.06417 8.11991 4.93293C8.44121 4.80168 8.78541 4.73569 9.13247 4.73878Z" fill="black"/>
<path d="M4.62704 7.27562C4.04448 7.30726 3.46797 7.14395 2.98856 6.81147C2.50915 6.47899 2.15414 5.99629 1.97961 5.43958C1.80507 4.88288 1.82095 4.2839 2.02473 3.73723C2.22851 3.19055 2.60858 2.72733 3.10494 2.42072C3.49699 2.15961 3.95464 2.01415 4.4255 2.00098C4.89636 1.98781 5.36141 2.10746 5.76745 2.34624C6.19065 2.56665 6.54312 2.90195 6.78436 3.31363C7.0256 3.72531 7.14585 4.19668 7.13129 4.67361C7.12744 4.74301 7.09945 4.80887 7.05216 4.8598C6.47009 5.34305 6.07228 6.01209 5.92571 6.75429C5.91983 6.79573 5.90349 6.83499 5.87825 6.86837C5.85301 6.90176 5.81968 6.92817 5.78142 6.94513C5.42987 7.14904 5.03324 7.26259 4.62704 7.27562Z" fill="black"/>
<path d="M13.499 2.01578C13.8868 2.01647 14.2696 2.10274 14.6202 2.26844C14.9707 2.43413 15.2804 2.67516 15.5271 2.97434C15.7738 3.27351 15.9514 3.62344 16.0472 3.99916C16.143 4.37488 16.1548 4.76713 16.0815 5.1479C16.0083 5.52868 15.8519 5.88859 15.6236 6.20197C15.3952 6.51534 15.1005 6.77444 14.7605 6.96079C14.4204 7.14713 14.0434 7.25611 13.6564 7.27996C13.2694 7.30382 12.8819 7.24194 12.5215 7.09877C12.4734 7.08218 12.4313 7.05162 12.4006 7.011C12.37 6.97037 12.3521 6.92152 12.3493 6.87069C12.2364 6.09599 11.842 5.39005 11.2415 4.88776C11.153 4.81329 11.046 4.75277 10.9575 4.66899C10.9125 4.62784 10.8843 4.57145 10.8784 4.51073C10.8949 4.09721 11.0109 3.69378 11.2168 3.33477C11.4226 2.97575 11.7122 2.67176 12.0607 2.44868C12.4853 2.16223 12.9869 2.01129 13.499 2.01578Z" fill="black"/>
</svg>
