<svg width="18" height="18" viewBox="0 0 18 18" fill="none" xmlns="http://www.w3.org/2000/svg">
<path d="M3.4 12H11.4L8.64 8.625L6.8 10.875L5.56 9.375L3.4 12ZM2.6 15C2.16 15 1.7832 14.853 1.4696 14.559C1.156 14.265 0.999468 13.912 1 13.5V4.5C1 4.0875 1.1568 3.73425 1.4704 3.44025C1.784 3.14625 2.16053 2.9995 2.6 3H12.2C12.64 3 13.0168 3.147 13.3304 3.441C13.644 3.735 13.8005 4.088 13.8 4.5V7.875L17 4.875V13.125L13.8 10.125V13.5C13.8 13.9125 13.6432 14.2657 13.3296 14.5597C13.016 14.8537 12.6395 15.0005 12.2 15H2.6Z" fill="black"/>
</svg>
